<svg width="23" height="23" viewBox="0 0 23 23" fill="none" xmlns="http://www.w3.org/2000/svg">
<path fill-rule="evenodd" clip-rule="evenodd" d="M15.616 14.6925H16.6364L22.1131 20.195C22.6426 20.7246 22.6426 21.59 22.1131 22.1196C21.5835 22.6492 20.7181 22.6492 20.1885 22.1196L14.6989 16.63V15.6096L14.3501 15.248C12.5418 16.798 10.0747 17.5988 7.45264 17.1596C3.8618 16.5525 0.994304 13.5559 0.555137 9.93921C-0.116529 4.47546 4.4818 -0.122877 9.94555 0.54879C13.5622 0.987957 16.5589 3.85546 17.166 7.44629C17.6051 10.0684 16.8043 12.5355 15.2543 14.3438L15.616 14.6925ZM3.07389 8.88004C3.07389 12.0963 5.67014 14.6925 8.88639 14.6925C12.1026 14.6925 14.6989 12.0963 14.6989 8.88004C14.6989 5.66379 12.1026 3.06754 8.88639 3.06754C5.67014 3.06754 3.07389 5.66379 3.07389 8.88004Z" fill="white"/>
</svg>
